<?xml version="1.0" standalone="no"?>
<!DOCTYPE svg PUBLIC "-//W3C//DTD SVG 20010904//EN"
 "http://www.w3.org/TR/2001/REC-SVG-20010904/DTD/svg10.dtd">
<svg version="1.0" xmlns="http://www.w3.org/2000/svg"
 width="700.000000pt" height="700.000000pt" viewBox="0 0 700.000000 700.000000"
 preserveAspectRatio="xMidYMid meet">
<metadata>
Created by potrace 1.11, written by Peter Selinger 2001-2013
</metadata>
<g transform="translate(0.000000,700.000000) scale(0.100000,-0.100000)"
fill="#000000" stroke="none">
<path d="M3590 6994 c-8 -1 -58 -8 -110 -14 -259 -33 -561 -146 -795 -298 -99
-64 -104 -68 -214 -162 -160 -137 -276 -272 -389 -453 -48 -77 -147 -272 -161
-320 -5 -18 -21 -66 -36 -107 -25 -72 -54 -182 -60 -227 -2 -11 -6 -29 -9 -40
-3 -10 -8 -45 -12 -78 -3 -33 -8 -69 -10 -80 -6 -27 -6 -344 -1 -370 3 -11 8
-42 11 -70 4 -27 10 -66 12 -85 11 -73 46 -209 80 -305 55 -153 120 -280 316
-618 98 -171 189 -328 202 -351 13 -23 47 -81 76 -131 29 -49 62 -108 75 -130
12 -22 65 -114 117 -204 l95 -164 -45 -81 c-24 -44 -58 -106 -74 -136 -31 -57
-185 -334 -316 -570 -41 -74 -88 -159 -103 -188 -63 -114 -351 -637 -355 -641
-1 -2 -76 -4 -166 -5 -176 -2 -197 -8 -232 -62 -20 -30 -313 -908 -317 -949
-3 -39 8 -74 35 -103 49 -55 -7 -52 1126 -52 1160 0 1095 -4 1141 62 44 61 42
70 -121 557 -83 250 -158 467 -167 481 -20 35 -65 61 -111 65 -21 2 -41 4 -46
4 -5 1 -4 7 1 14 6 6 24 37 40 67 17 30 72 129 123 220 126 224 142 251 156
278 11 22 18 12 114 -150 56 -95 111 -188 122 -206 26 -42 81 -70 134 -68 40
2 51 8 474 253 41 24 77 43 81 43 3 0 116 -72 249 -161 143 -95 256 -163 275
-166 37 -6 97 11 135 37 14 10 42 27 63 38 l39 20 52 -28 c28 -16 77 -38 109
-50 l57 -21 0 -60 c0 -40 -4 -59 -12 -60 -7 0 -83 -2 -168 -3 -170 -3 -193 -9
-227 -59 -34 -51 -318 -914 -318 -967 0 -54 29 -100 79 -124 31 -14 136 -16
1086 -16 1133 0 1076 -3 1127 52 12 12 26 42 31 65 9 40 0 72 -144 504 -85
254 -161 473 -169 485 -32 49 -68 58 -239 60 -101 1 -161 5 -165 12 -4 6 -6
105 -6 219 1 194 2 211 21 238 71 103 123 275 124 415 l0 55 89 52 c121 71
125 80 116 266 -3 78 -8 158 -10 177 -2 19 -7 91 -10 160 l-6 125 202 115
c111 63 222 127 248 141 25 15 58 39 74 53 24 24 27 35 27 91 0 61 -3 70 -70
187 -39 68 -75 130 -80 138 -9 15 -182 313 -228 394 -13 23 -75 129 -137 236
-62 107 -121 211 -132 230 -11 19 -86 150 -168 290 -81 140 -157 271 -168 290
-179 319 -567 982 -625 1070 -106 159 -218 287 -352 400 -35 30 -71 61 -78 68
-42 39 -253 167 -352 214 -144 69 -332 134 -439 153 -19 3 -37 7 -40 9 -3 2
-35 7 -71 11 -36 4 -69 10 -74 13 -9 5 -368 11 -396 6z m375 -298 c439 -59
836 -286 1114 -635 46 -58 49 -66 33 -76 -13 -10 -562 -328 -700 -407 -36 -20
-163 -93 -527 -303 -126 -73 -249 -144 -271 -157 -23 -12 -135 -77 -248 -143
-114 -66 -223 -129 -244 -140 -20 -11 -38 -23 -40 -27 -2 -5 -7 -8 -12 -8 -7
0 -80 -42 -629 -359 -107 -61 -198 -110 -204 -108 -5 1 -20 29 -33 61 -28 70
-41 55 130 153 65 37 134 78 155 89 82 48 428 248 461 266 132 74 164 109 162
183 0 33 -23 80 -122 250 -67 116 -130 219 -141 231 -24 26 -75 42 -117 38
-18 -2 -133 -62 -260 -135 -423 -245 -385 -224 -379 -202 3 10 8 34 11 53 3
19 8 45 11 58 3 12 7 32 10 43 23 108 73 241 137 369 61 122 159 266 179 261
8 -2 42 -12 77 -22 88 -25 126 -30 217 -30 97 0 139 6 230 33 185 54 361 192
462 363 35 59 80 178 89 234 10 58 20 70 67 73 70 5 329 1 382 -6z m-782 -138
c-62 -120 -207 -229 -341 -257 -60 -12 -182 -15 -182 -3 1 24 263 196 390 254
155 72 168 72 133 6z m2177 -950 c41 -73 87 -153 101 -178 52 -91 177 -307
223 -383 25 -43 46 -81 46 -83 0 -2 11 -21 23 -42 13 -20 35 -57 49 -82 14
-25 49 -85 78 -135 29 -49 62 -108 75 -130 21 -37 260 -451 301 -522 31 -52
187 -322 213 -367 12 -22 62 -108 109 -190 82 -143 85 -150 66 -163 -32 -24
-747 -433 -756 -433 -4 0 -8 -4 -8 -10 0 -5 -4 -10 -9 -10 -5 0 -148 -80 -318
-178 -169 -98 -528 -306 -798 -462 -269 -155 -602 -347 -738 -426 -137 -79
-252 -144 -255 -144 -4 0 -22 26 -40 57 -45 80 -70 123 -136 231 -31 51 -56
98 -56 104 0 11 16 41 200 368 51 91 106 189 122 218 17 30 94 167 172 305
140 249 142 252 176 255 450 33 814 320 935 738 56 193 54 388 -5 589 -21 71
-80 195 -109 228 -56 65 -181 51 -226 -26 -31 -53 -30 -89 9 -174 43 -96 63
-154 72 -213 50 -327 -118 -643 -418 -783 -89 -41 -131 -46 -99 -11 5 5 20 29
34 54 13 25 62 110 107 190 141 248 158 289 164 402 16 278 -204 523 -479 534
-44 1 -102 -1 -130 -7 -83 -15 -190 -74 -259 -143 -58 -58 -107 -139 -299
-496 -11 -19 -56 -100 -100 -180 -44 -80 -97 -174 -116 -211 -185 -340 -336
-607 -342 -603 -4 2 -22 30 -40 62 -51 90 -54 95 -294 511 -125 216 -223 397
-218 401 4 5 58 36 118 71 61 34 142 81 180 104 39 23 90 54 115 67 56 32 246
141 495 285 105 61 267 154 360 208 94 54 188 109 210 121 22 13 77 45 123 71
46 27 91 53 100 58 33 20 178 103 212 122 145 82 450 259 472 274 15 11 29 19
31 19 2 0 109 61 238 135 129 74 236 135 239 135 3 0 39 -60 80 -132z m-2628
-410 l37 -62 -27 -16 c-15 -9 -148 -87 -297 -172 -148 -86 -287 -165 -307
-177 l-37 -22 -6 48 c-16 123 -49 90 258 266 150 86 286 166 302 176 17 11 32
20 35 20 3 1 22 -27 42 -61z m1525 -776 c71 -37 116 -109 116 -188 0 -218
-280 -305 -399 -124 -38 58 -44 150 -14 211 34 66 74 101 139 119 44 12 114 4
158 -18z m-383 -616 c46 -31 127 -62 213 -83 l32 -8 -40 -70 c-23 -38 -107
-187 -187 -330 -80 -143 -154 -276 -165 -295 -11 -19 -50 -89 -87 -155 -38
-66 -84 -149 -104 -183 -20 -35 -36 -68 -36 -73 0 -5 -4 -9 -10 -9 -5 0 -10
-4 -10 -10 0 -5 -41 -83 -92 -172 -51 -90 -99 -176 -108 -193 -9 -16 -23 -41
-31 -55 -9 -14 -139 -244 -289 -513 -150 -268 -278 -487 -284 -488 -54 -4
-449 -3 -451 1 -3 5 39 86 144 275 19 33 46 83 61 110 15 28 39 70 52 95 59
106 193 349 221 400 17 30 50 91 75 135 24 44 57 103 72 130 15 28 112 203
215 390 103 187 200 363 215 390 15 28 110 199 210 380 100 182 196 355 213
385 16 30 31 58 34 62 2 4 22 -13 44 -37 23 -24 64 -60 93 -79z m2297 -1163
c1 -38 3 -79 4 -93 3 -34 7 -132 6 -147 -1 -12 -107 -79 -231 -146 -30 -16
-62 -36 -71 -43 -8 -8 -18 -14 -22 -14 -3 0 -194 -109 -423 -241 -230 -133
-431 -249 -448 -259 -17 -9 -59 -34 -94 -54 -34 -21 -66 -36 -71 -34 -30 12
-260 172 -256 178 2 4 60 39 127 78 260 148 981 565 1238 715 118 69 221 126
228 126 8 1 12 -19 13 -66z m-247 -808 c-61 -125 -195 -231 -335 -268 -77 -20
-288 -11 -234 10 6 2 141 79 300 172 189 110 291 164 293 156 2 -8 -9 -39 -24
-70z m-90 -568 c0 -46 -3 -88 -6 -93 -4 -5 -57 -8 -120 -8 -186 3 -168 -3
-168 48 0 25 3 47 8 49 4 3 32 8 61 12 56 7 188 50 206 66 18 17 20 8 19 -74z
m-2879 -398 c5 -5 195 -565 195 -575 0 -2 -366 -2 -812 -1 -806 2 -813 2 -811
22 1 11 43 142 93 290 l90 270 619 0 c341 0 622 -3 626 -6z m3364 -19 c19 -47
181 -541 181 -550 0 -5 -339 -9 -815 -9 -448 0 -815 1 -815 2 0 6 189 567 193
574 3 4 284 8 626 8 l621 0 9 -25z"/>
<path d="M3614 6129 c-126 -73 -258 -149 -293 -170 -34 -22 -66 -39 -70 -39
-21 0 -110 -74 -125 -103 -34 -73 -30 -85 113 -332 143 -246 151 -255 231
-255 49 0 41 -4 355 178 138 80 270 156 295 170 74 41 97 60 114 96 30 64 22
91 -70 252 -48 82 -94 163 -102 179 -31 60 -75 117 -105 136 -66 40 -94 31
-343 -112z m256 -275 c26 -47 29 -59 18 -69 -18 -17 -345 -205 -357 -205 -10
0 -71 101 -71 118 0 5 8 12 18 15 9 4 89 49 177 101 88 52 165 95 172 96 6 0
25 -25 43 -56z"/>
<path d="M1461 6696 c-46 -16 -105 -68 -124 -109 -54 -113 -1 -253 115 -300
44 -18 133 -15 174 6 130 67 162 233 66 339 -20 23 -53 48 -72 56 -45 19 -116
23 -159 8z m119 -156 c47 -47 15 -120 -51 -120 -38 0 -69 32 -69 70 0 38 32
70 70 70 17 0 39 -9 50 -20z"/>
<path d="M6424 6696 c-186 -67 -204 -311 -30 -404 42 -22 141 -22 187 0 41 20
95 76 111 117 16 41 17 111 1 157 -15 46 -75 107 -121 126 -39 15 -112 17
-148 4z m116 -156 c42 -42 12 -120 -48 -120 -44 0 -72 26 -72 66 0 43 29 74
70 74 17 0 39 -9 50 -20z"/>
<path d="M415 4950 c-247 -48 -435 -291 -412 -532 10 -98 15 -118 53 -195 110
-226 372 -336 612 -257 40 13 91 36 115 51 103 65 195 193 223 312 17 73 12
212 -11 276 -54 157 -169 273 -321 326 -64 22 -194 31 -259 19z m177 -299 c49
-19 106 -79 123 -132 72 -216 -186 -381 -356 -227 -59 53 -80 136 -55 219 34
119 171 185 288 140z"/>
<path d="M1599 3257 c-42 -27 -65 -75 -72 -145 -11 -112 -93 -186 -217 -196
-83 -6 -143 -67 -143 -145 0 -82 58 -139 151 -148 64 -6 104 -23 145 -62 41
-37 56 -70 66 -146 11 -76 28 -107 74 -136 48 -30 127 -22 168 17 41 39 46 49
54 119 14 125 87 197 212 209 68 6 96 21 126 69 66 100 -3 218 -131 226 -56 3
-100 22 -139 60 -44 42 -60 77 -68 147 -8 68 -31 112 -73 137 -43 24 -111 22
-153 -6z"/>
<path d="M645 1440 c-52 -22 -111 -88 -125 -139 -36 -136 57 -269 194 -277
122 -6 222 80 229 197 4 69 -8 110 -49 158 -62 72 -166 97 -249 61z m135 -150
c42 -42 12 -120 -48 -120 -46 0 -72 25 -72 70 0 29 6 43 22 54 31 22 74 20 98
-4z"/>
</g>
</svg>
